M48
; DRILL file {KiCad (7.0.0)} date Mon Mar 11 20:32:46 2024
; FORMAT={-:-/ absolute / metric / decimal}
; #@! TF.CreationDate,2024-03-11T20:32:46+02:00
; #@! TF.GenerationSoftware,Kicad,Pcbnew,(7.0.0)
; #@! TF.FileFunction,Plated,1,2,PTH
FMAT,2
METRIC
; #@! TA.AperFunction,Plated,PTH,ViaDrill
T1C0.400
; #@! TA.AperFunction,Plated,PTH,ComponentDrill
T2C0.600
; #@! TA.AperFunction,Plated,PTH,ComponentDrill
T3C0.800
; #@! TA.AperFunction,Plated,PTH,ComponentDrill
T4C0.950
; #@! TA.AperFunction,Plated,PTH,ComponentDrill
T5C1.000
; #@! TA.AperFunction,Plated,PTH,ComponentDrill
T6C1.100
%
G90
G05
T1
X68.258Y-117.67
X68.807Y-126.69
X69.056Y-128.722
X69.507Y-111.677
X69.977Y-119.705
X70.231Y-113.609
X70.282Y-95.6
X70.578Y-100.824
X70.954Y-115.404
X71.082Y-105.1
X72.136Y-106.497
X72.558Y-118.364
X72.771Y-119.832
X74.457Y-113.364
X74.549Y-120.34
X75.172Y-112.564
X75.438Y-107.005
X75.45Y-92.525
X75.473Y-109.218
X75.565Y-83.637
X75.565Y-115.465
X75.574Y-101.39
X75.692Y-86.181
X76.13Y-102.884
X77.978Y-116.725
X78.232Y-100.274
X78.486Y-95.121
X79.389Y-102.076
X80.01Y-79.319
X80.18Y-104.431
X80.366Y-97.662
X80.401Y-102.785
X81.072Y-89.732
X81.595Y-103.756
X81.661Y-95.133
X82.423Y-129.141
X82.966Y-109.787
X83.185Y-124.36
X83.439Y-103.703
X83.583Y-96.583
X83.606Y-89.726
X83.82Y-90.876
X84.324Y-94.809
X84.963Y-106.777
X85.112Y-90.609
X85.34Y-97.603
X85.917Y-102.84
X86.157Y-88.234
X86.233Y-80.335
X86.32Y-104.85
X86.522Y-84.282
X86.649Y-109.533
X86.741Y-91.13
X86.995Y-98.75
X87.042Y-95.876
X87.315Y-80.472
X87.362Y-83.74
X87.949Y-105.761
X87.949Y-107.412
X88.002Y-91.139
X88.646Y-76.906
X88.773Y-69.921
X88.779Y-97.451
X88.951Y-78.836
X89.141Y-131.339
X89.546Y-94.19
X89.592Y-105.261
X90.932Y-84.272
X91.061Y-121.612
X91.44Y-65.666
X91.475Y-104.834
X92.034Y-144.429
X92.207Y-88.463
X92.237Y-92.007
X92.329Y-116.586
X92.456Y-104.44
X93.168Y-88.187
X93.349Y-84.395
X93.434Y-125.857
X93.634Y-96.96
X93.98Y-78.557
X94.031Y-83.027
X94.191Y-88.186
X94.256Y-98.161
X94.258Y-79.827
X94.412Y-84.043
X94.412Y-85.186
X94.75Y-124.015
X94.758Y-92.261
X94.98Y-98.849
X94.996Y-108.783
X95.123Y-142.565
X95.187Y-103.068
X95.721Y-110.49
X96.083Y-99.069
X96.75Y-80.108
X96.911Y-109.174
X97.282Y-112.014
X97.409Y-79.356
X98.171Y-78.545
X98.806Y-90.192
X99.06Y-95.448
X99.568Y-88.743
X99.657Y-104.579
X99.784Y-94.471
X99.822Y-98.75
X100.457Y-85.782
X100.511Y-93.785
X100.567Y-88.714
X100.584Y-64.206
X100.584Y-70.175
X100.68Y-108.743
X100.859Y-87.758
X100.965Y-111.234
X101.219Y-79.028
X101.6Y-63.444
X101.689Y-113.972
X101.837Y-87.466
X101.873Y-93.807
X101.983Y-85.102
X102.102Y-98.11
X102.873Y-93.807
X103.138Y-87.687
X103.138Y-111.958
X103.16Y-85.193
X103.632Y-103.703
X103.759Y-106.243
X104.575Y-105.665
X104.644Y-103.716
X105.156Y-91.13
X105.701Y-88.336
X105.701Y-89.483
X105.918Y-96.014
X106.404Y-83.151
X106.915Y-95.949
X107.239Y-104.871
X107.525Y-94.344
X107.696Y-108.783
X108.072Y-88.087
X108.249Y-95.051
X108.331Y-80.313
X108.845Y-91.008
X108.966Y-92.4
X109.233Y-85.161
X109.525Y-114.777
X109.555Y-117.28
X109.678Y-91.638
X110.465Y-115.353
X110.541Y-117.444
X116.072Y-141.935
X116.167Y-112.395
X116.173Y-107.894
X116.459Y-105.88
X116.84Y-141.295
X117.738Y-114.808
X117.859Y-131.897
X118.618Y-118.189
X118.618Y-126.207
X119.348Y-114.776
X119.61Y-106.275
X119.634Y-123.261
X120.732Y-106.238
X120.904Y-136.906
X120.921Y-73.533
X121.099Y-99.509
X121.285Y-126.207
X121.412Y-127.889
X122.259Y-73.702
X123.081Y-109.728
X123.444Y-112.302
X123.825Y-134.493
X124.206Y-96.393
X124.206Y-140.857
X124.714Y-108.656
X124.841Y-75.565
X124.841Y-119.959
X124.841Y-123.642
X124.841Y-127.706
X124.968Y-86.36
X125.222Y-96.337
X125.566Y-65.913
X125.603Y-82.804
X125.857Y-114.808
X126.365Y-130.822
X126.551Y-67.623
X126.619Y-128.468
X126.682Y-79.819
X127.127Y-143.397
X127.381Y-94.178
X127.889Y-132.672
X128.397Y-110.182
X128.651Y-84.836
X128.905Y-115.824
X129.663Y-67.56
X129.921Y-70.485
X129.921Y-119.832
X129.921Y-123.642
X130.302Y-89.408
X130.302Y-122.372
X130.937Y-77.724
X131.191Y-128.976
X131.318Y-127.579
X131.921Y-123.586
X132.461Y-93.702
X133.185Y-88.336
X133.35Y-91.186
X133.35Y-117.729
X133.985Y-107.64
X134.175Y-139.602
X134.239Y-105.748
X134.275Y-112.943
X134.276Y-75.255
X134.276Y-128.738
X134.276Y-133.35
X134.747Y-87.757
X134.963Y-102.433
X135.725Y-77.332
X135.89Y-102.941
X135.96Y-78.303
X136.144Y-151.582
X136.175Y-103.931
X136.678Y-95.228
X137.129Y-97.731
X137.129Y-105.74
X137.35Y-112.974
X137.409Y-92.79
X137.489Y-135.861
X138.438Y-135.549
X138.453Y-77.019
X138.462Y-144.82
X138.577Y-97.137
X138.603Y-138.828
X138.738Y-98.123
X139.192Y-75.255
X139.438Y-135.549
X139.895Y-108.461
X139.953Y-80.466
X139.954Y-86.05
X139.968Y-93.021
X139.995Y-95.688
X140.208Y-112.339
X140.295Y-102.012
X140.303Y-73.12
X140.358Y-109.56
X140.437Y-135.549
X140.719Y-97.282
X140.97Y-78.938
X141.228Y-87.452
X141.437Y-135.549
X141.478Y-75.819
X141.678Y-94.354
X141.862Y-139.702
X142.494Y-85.161
X142.494Y-110.307
X142.526Y-135.549
X142.748Y-102.052
X142.86Y-87.869
X142.875Y-131.643
X143.023Y-101.091
X143.256Y-73.869
X143.352Y-82.581
X143.51Y-72.136
X143.853Y-139.008
X144.144Y-89.484
X144.145Y-66.675
X144.2Y-121.229
X144.253Y-129.574
X144.399Y-127.889
X144.433Y-132.978
X144.526Y-134.874
X144.554Y-94.604
X144.594Y-114.185
X145.022Y-70.679
X145.034Y-126.563
X145.161Y-129.992
X145.161Y-144.78
X145.288Y-136.017
X145.347Y-98.407
X145.415Y-138.557
X145.49Y-73.848
X145.923Y-65.913
X145.923Y-71.755
X145.992Y-114.441
X146.045Y-88.595
X146.065Y-97.711
X146.177Y-120.505
X146.177Y-122.499
X146.214Y-72.898
X146.431Y-130.137
X146.807Y-89.357
X146.939Y-83.204
X147.155Y-127.762
X147.458Y-95.792
X147.574Y-138.557
X147.701Y-65.278
X147.741Y-125.85
X147.999Y-122.118
X148.073Y-120.505
X148.174Y-95.067
X148.332Y-96.968
X148.59Y-106.497
X148.679Y-61.76
X148.971Y-141.676
X149.098Y-100.711
X149.098Y-120.505
X149.098Y-121.954
X149.12Y-65.256
X149.151Y-86.629
X149.897Y-64.418
X149.945Y-87.235
X150.07Y-88.844
X150.114Y-134.747
X150.241Y-121.229
X150.454Y-83.204
X150.622Y-67.945
X150.622Y-100.584
X150.659Y-88.037
X152.101Y-134.673
X152.157Y-145.497
X152.4Y-62.357
X152.527Y-129.992
X152.781Y-89.594
X153.035Y-100.076
X153.035Y-107.17
X153.797Y-97.028
X153.92Y-124.654
X154.051Y-104.775
X154.051Y-108.619
X154.463Y-140.626
X154.702Y-123.007
X154.85Y-139.159
X154.94Y-91.821
X155.559Y-142.732
X155.993Y-130.429
X156.464Y-99.187
X156.591Y-137.993
X156.718Y-126.055
X157.707Y-125.914
X158.369Y-96.52
T3
X71.79Y-82.408
X71.79Y-87.308
X118.618Y-94.832
X118.618Y-99.732
X130.334Y-132.151
X132.334Y-132.151
T4
X71.759Y-138.018
X74.259Y-138.018
X76.759Y-138.018
X79.259Y-138.018
X83.871Y-149.067
X86.371Y-149.067
X88.871Y-149.067
X91.371Y-149.067
X93.871Y-149.067
X96.371Y-149.067
X131.518Y-149.423
X134.018Y-149.423
X136.518Y-149.423
X139.018Y-149.423
X141.518Y-149.423
X144.018Y-149.423
T5
X70.358Y-55.57
X70.358Y-60.142
X71.425Y-122.27
X71.425Y-124.81
X71.425Y-127.35
X71.425Y-129.89
X72.898Y-55.57
X72.898Y-60.142
X75.87Y-122.27
X75.87Y-124.81
X75.87Y-127.35
X75.87Y-129.89
X77.597Y-55.57
X77.597Y-60.142
X80.137Y-55.57
X80.137Y-60.142
X80.188Y-122.27
X80.188Y-124.81
X80.188Y-127.35
X80.188Y-129.89
X84.76Y-122.27
X84.76Y-124.81
X84.76Y-127.35
X84.76Y-129.89
X85.979Y-55.443
X85.979Y-60.142
X88.519Y-55.443
X88.519Y-60.142
X89.078Y-122.27
X89.078Y-124.81
X89.078Y-127.35
X89.078Y-129.89
X90.495Y-137.958
X92.456Y-55.443
X92.456Y-60.142
X92.995Y-137.958
X94.996Y-55.443
X94.996Y-60.142
X97.409Y-122.341
X97.409Y-124.841
X97.409Y-127.341
X101.219Y-55.189
X101.219Y-60.071
X103.759Y-55.189
X103.759Y-60.071
X105.222Y-122.368
X105.222Y-127.018
X105.222Y-131.668
X105.222Y-136.318
X107.762Y-122.368
X107.762Y-127.018
X107.762Y-131.668
X107.762Y-136.318
X107.823Y-55.189
X108.077Y-60.142
X110.287Y-74.782
X110.287Y-77.322
X110.287Y-79.862
X110.287Y-82.402
X110.302Y-122.368
X110.302Y-127.018
X110.302Y-131.668
X110.302Y-136.318
X110.363Y-55.189
X110.617Y-60.142
X116.713Y-118.938
X116.713Y-121.478
X116.713Y-127.447
X116.713Y-129.987
X117.221Y-55.316
X117.221Y-59.761
X118.11Y-138.43
X118.872Y-109.037
X118.872Y-111.577
X119.761Y-55.316
X119.761Y-59.761
X124.46Y-55.316
X124.46Y-59.761
X125.008Y-102.743
X125.71Y-138.43
X127.0Y-55.316
X127.0Y-59.761
X127.508Y-102.743
X130.008Y-102.743
X130.429Y-140.406
X130.429Y-142.946
X132.461Y-55.316
X132.588Y-59.634
X132.969Y-140.406
X132.969Y-142.946
X135.001Y-55.316
X135.128Y-59.634
X135.382Y-67.635
X135.382Y-70.175
X135.509Y-140.406
X135.509Y-142.946
X137.922Y-67.635
X137.922Y-70.175
X138.049Y-140.406
X138.049Y-142.946
X139.319Y-55.457
X139.319Y-59.69
X140.462Y-67.635
X140.462Y-70.175
X140.589Y-140.406
X140.589Y-142.946
X141.859Y-55.457
X141.859Y-59.69
X143.002Y-67.635
X143.002Y-70.175
X143.129Y-140.406
X143.129Y-142.946
X145.669Y-140.406
X145.669Y-142.946
X148.082Y-55.316
X148.082Y-59.761
X148.209Y-140.406
X148.209Y-142.946
X150.622Y-55.316
X150.622Y-59.761
X150.749Y-140.406
X150.749Y-142.946
X155.321Y-55.316
X155.321Y-59.761
X157.844Y-101.564
X157.844Y-104.064
X157.861Y-55.316
X157.861Y-59.761
X157.861Y-92.313
X157.861Y-94.813
X157.861Y-110.728
X157.861Y-113.228
X157.861Y-119.578
X157.861Y-122.078
X157.861Y-140.065
X157.861Y-142.565
X159.893Y-76.144
X159.893Y-78.684
X159.893Y-81.224
X159.893Y-83.764
T6
X150.805Y-105.354
X150.805Y-107.894
X150.805Y-110.434
T2
X154.03Y-127.12G85X155.13Y-127.12
G05
X154.03Y-135.77G85X155.13Y-135.77
G05
X158.35Y-127.12G85X159.15Y-127.12
G05
X158.35Y-135.77G85X159.15Y-135.77
G05
T0
M30
