%TF.GenerationSoftware,KiCad,Pcbnew,(7.0.0)*%
%TF.CreationDate,2024-03-08T00:10:05+02:00*%
%TF.ProjectId,quadraptor,71756164-7261-4707-946f-722e6b696361,rev?*%
%TF.SameCoordinates,Original*%
%TF.FileFunction,Paste,Top*%
%TF.FilePolarity,Positive*%
%FSLAX46Y46*%
G04 Gerber Fmt 4.6, Leading zero omitted, Abs format (unit mm)*
G04 Created by KiCad (PCBNEW (7.0.0)) date 2024-03-08 00:10:05*
%MOMM*%
%LPD*%
G01*
G04 APERTURE LIST*
G04 Aperture macros list*
%AMRoundRect*
0 Rectangle with rounded corners*
0 $1 Rounding radius*
0 $2 $3 $4 $5 $6 $7 $8 $9 X,Y pos of 4 corners*
0 Add a 4 corners polygon primitive as box body*
4,1,4,$2,$3,$4,$5,$6,$7,$8,$9,$2,$3,0*
0 Add four circle primitives for the rounded corners*
1,1,$1+$1,$2,$3*
1,1,$1+$1,$4,$5*
1,1,$1+$1,$6,$7*
1,1,$1+$1,$8,$9*
0 Add four rect primitives between the rounded corners*
20,1,$1+$1,$2,$3,$4,$5,0*
20,1,$1+$1,$4,$5,$6,$7,0*
20,1,$1+$1,$6,$7,$8,$9,0*
20,1,$1+$1,$8,$9,$2,$3,0*%
G04 Aperture macros list end*
%ADD10RoundRect,0.075000X-0.350000X-0.075000X0.350000X-0.075000X0.350000X0.075000X-0.350000X0.075000X0*%
%ADD11RoundRect,0.075000X0.075000X-0.350000X0.075000X0.350000X-0.075000X0.350000X-0.075000X-0.350000X0*%
%ADD12RoundRect,0.250000X0.475000X-0.337500X0.475000X0.337500X-0.475000X0.337500X-0.475000X-0.337500X0*%
%ADD13RoundRect,0.250000X-0.475000X0.337500X-0.475000X-0.337500X0.475000X-0.337500X0.475000X0.337500X0*%
%ADD14RoundRect,0.250000X-0.450000X0.350000X-0.450000X-0.350000X0.450000X-0.350000X0.450000X0.350000X0*%
%ADD15RoundRect,0.250000X0.337500X0.475000X-0.337500X0.475000X-0.337500X-0.475000X0.337500X-0.475000X0*%
%ADD16RoundRect,0.075000X-0.075000X-0.662500X0.075000X-0.662500X0.075000X0.662500X-0.075000X0.662500X0*%
%ADD17RoundRect,0.075000X-0.662500X-0.075000X0.662500X-0.075000X0.662500X0.075000X-0.662500X0.075000X0*%
%ADD18RoundRect,0.250000X0.450000X-0.350000X0.450000X0.350000X-0.450000X0.350000X-0.450000X-0.350000X0*%
%ADD19RoundRect,0.250000X-0.350000X-0.450000X0.350000X-0.450000X0.350000X0.450000X-0.350000X0.450000X0*%
%ADD20RoundRect,0.250000X-0.337500X-0.475000X0.337500X-0.475000X0.337500X0.475000X-0.337500X0.475000X0*%
%ADD21RoundRect,0.250000X0.350000X0.450000X-0.350000X0.450000X-0.350000X-0.450000X0.350000X-0.450000X0*%
%ADD22RoundRect,0.250000X0.412500X0.650000X-0.412500X0.650000X-0.412500X-0.650000X0.412500X-0.650000X0*%
%ADD23R,1.145000X0.550000*%
%ADD24R,0.550000X1.145000*%
%ADD25RoundRect,0.237500X0.237500X-0.250000X0.237500X0.250000X-0.237500X0.250000X-0.237500X-0.250000X0*%
%ADD26RoundRect,0.250000X0.450000X-0.325000X0.450000X0.325000X-0.450000X0.325000X-0.450000X-0.325000X0*%
%ADD27RoundRect,0.112500X-0.187500X-0.112500X0.187500X-0.112500X0.187500X0.112500X-0.187500X0.112500X0*%
%ADD28RoundRect,0.250000X-0.650000X0.412500X-0.650000X-0.412500X0.650000X-0.412500X0.650000X0.412500X0*%
%ADD29R,1.600000X0.700000*%
%ADD30R,2.200000X1.200000*%
%ADD31R,1.400000X1.600000*%
%ADD32R,1.400000X1.200000*%
%ADD33R,1.500000X2.000000*%
%ADD34R,3.800000X2.000000*%
%ADD35RoundRect,0.237500X-0.250000X-0.237500X0.250000X-0.237500X0.250000X0.237500X-0.250000X0.237500X0*%
%ADD36RoundRect,0.250000X-0.325000X-0.450000X0.325000X-0.450000X0.325000X0.450000X-0.325000X0.450000X0*%
%ADD37R,1.550000X1.300000*%
%ADD38R,0.350000X0.500000*%
%ADD39R,1.150000X0.300000*%
%ADD40RoundRect,0.150000X-0.850000X-0.150000X0.850000X-0.150000X0.850000X0.150000X-0.850000X0.150000X0*%
%ADD41R,0.550000X0.300000*%
%ADD42R,0.300000X0.550000*%
%ADD43R,0.710000X0.580000*%
%ADD44R,0.750000X0.300000*%
%ADD45R,1.300000X1.550000*%
G04 APERTURE END LIST*
D10*
%TO.C,U10*%
X87288972Y-100872000D03*
X87288972Y-101372000D03*
X87288972Y-101872000D03*
X87288972Y-102372000D03*
X87288972Y-102872000D03*
X87288972Y-103372000D03*
D11*
X87988972Y-104072000D03*
X88488972Y-104072000D03*
X88988972Y-104072000D03*
X89488972Y-104072000D03*
X89988972Y-104072000D03*
X90488972Y-104072000D03*
D10*
X91188972Y-103372000D03*
X91188972Y-102872000D03*
X91188972Y-102372000D03*
X91188972Y-101872000D03*
X91188972Y-101372000D03*
X91188972Y-100872000D03*
D11*
X90488972Y-100172000D03*
X89988972Y-100172000D03*
X89488972Y-100172000D03*
X88988972Y-100172000D03*
X88488972Y-100172000D03*
X87988972Y-100172000D03*
%TD*%
D12*
%TO.C,C23*%
X90967222Y-77550750D03*
X90967222Y-75475750D03*
%TD*%
D13*
%TO.C,C21*%
X96901000Y-94720500D03*
X96901000Y-96795500D03*
%TD*%
D14*
%TO.C,R15*%
X154813000Y-79229750D03*
X154813000Y-81229750D03*
%TD*%
D15*
%TO.C,C39*%
X142515500Y-133096000D03*
X140440500Y-133096000D03*
%TD*%
D16*
%TO.C,U1*%
X90982722Y-81593750D03*
X91482722Y-81593750D03*
X91982722Y-81593750D03*
X92482722Y-81593750D03*
X92982722Y-81593750D03*
X93482722Y-81593750D03*
X93982722Y-81593750D03*
X94482722Y-81593750D03*
X94982722Y-81593750D03*
X95482722Y-81593750D03*
X95982722Y-81593750D03*
X96482722Y-81593750D03*
D17*
X97895222Y-83006250D03*
X97895222Y-83506250D03*
X97895222Y-84006250D03*
X97895222Y-84506250D03*
X97895222Y-85006250D03*
X97895222Y-85506250D03*
X97895222Y-86006250D03*
X97895222Y-86506250D03*
X97895222Y-87006250D03*
X97895222Y-87506250D03*
X97895222Y-88006250D03*
X97895222Y-88506250D03*
D16*
X96482722Y-89918750D03*
X95982722Y-89918750D03*
X95482722Y-89918750D03*
X94982722Y-89918750D03*
X94482722Y-89918750D03*
X93982722Y-89918750D03*
X93482722Y-89918750D03*
X92982722Y-89918750D03*
X92482722Y-89918750D03*
X91982722Y-89918750D03*
X91482722Y-89918750D03*
X90982722Y-89918750D03*
D17*
X89570222Y-88506250D03*
X89570222Y-88006250D03*
X89570222Y-87506250D03*
X89570222Y-87006250D03*
X89570222Y-86506250D03*
X89570222Y-86006250D03*
X89570222Y-85506250D03*
X89570222Y-85006250D03*
X89570222Y-84506250D03*
X89570222Y-84006250D03*
X89570222Y-83506250D03*
X89570222Y-83006250D03*
%TD*%
D18*
%TO.C,R19*%
X138557000Y-81716250D03*
X138557000Y-79716250D03*
%TD*%
D19*
%TO.C,R12*%
X136557000Y-129992250D03*
X138557000Y-129992250D03*
%TD*%
D20*
%TO.C,C37*%
X124819500Y-116238250D03*
X126894500Y-116238250D03*
%TD*%
D21*
%TO.C,R7*%
X150860000Y-126661250D03*
X148860000Y-126661250D03*
%TD*%
D20*
%TO.C,C3*%
X89959472Y-96871000D03*
X92034472Y-96871000D03*
%TD*%
D22*
%TO.C,C29*%
X109563222Y-110332250D03*
X106438222Y-110332250D03*
%TD*%
D21*
%TO.C,R13*%
X145653000Y-110434250D03*
X143653000Y-110434250D03*
%TD*%
D23*
%TO.C,U3*%
X73014721Y-112614749D03*
X73014721Y-111814749D03*
X73014721Y-111014749D03*
X73014721Y-110214749D03*
X73014721Y-109414749D03*
X73014721Y-108614749D03*
D24*
X71917221Y-108517249D03*
D23*
X70819721Y-108614749D03*
X70819721Y-109414749D03*
X70819721Y-110214749D03*
X70819721Y-111014749D03*
X70819721Y-111814749D03*
X70819721Y-112614749D03*
D24*
X71917221Y-112712249D03*
%TD*%
D15*
%TO.C,C16*%
X73554500Y-102108000D03*
X71479500Y-102108000D03*
%TD*%
%TO.C,C6*%
X84160472Y-106777000D03*
X82085472Y-106777000D03*
%TD*%
D25*
%TO.C,R5*%
X102666722Y-109116500D03*
X102666722Y-107291500D03*
%TD*%
D26*
%TO.C,D3*%
X103079472Y-69803250D03*
X103079472Y-67753250D03*
%TD*%
D20*
%TO.C,C2*%
X71796722Y-93973750D03*
X73871722Y-93973750D03*
%TD*%
D27*
%TO.C,D6*%
X130141000Y-110236000D03*
X132241000Y-110236000D03*
%TD*%
D28*
%TO.C,C13*%
X77886222Y-109052250D03*
X77886222Y-112177250D03*
%TD*%
D29*
%TO.C,J4*%
X129321854Y-83042281D03*
X129321854Y-81942281D03*
X129321854Y-80842281D03*
X129321854Y-79742281D03*
X129321854Y-78642281D03*
X129321854Y-77542281D03*
X129321854Y-76442281D03*
X129321854Y-75342281D03*
X129321854Y-74242281D03*
D30*
X119221854Y-88542281D03*
D31*
X128821854Y-87642281D03*
D30*
X119221854Y-73042281D03*
D32*
X128821854Y-73042281D03*
%TD*%
D12*
%TO.C,C12*%
X82293222Y-93912250D03*
X82293222Y-91837250D03*
%TD*%
D13*
%TO.C,C38*%
X120015000Y-128629500D03*
X120015000Y-130704500D03*
%TD*%
D33*
%TO.C,U9*%
X95953471Y-72690249D03*
X98253471Y-72690249D03*
D34*
X98253471Y-66390249D03*
D33*
X100553471Y-72690249D03*
%TD*%
D19*
%TO.C,R4*%
X101905222Y-92007250D03*
X103905222Y-92007250D03*
%TD*%
D27*
%TO.C,D5*%
X127982000Y-107569000D03*
X130082000Y-107569000D03*
%TD*%
D20*
%TO.C,C8*%
X87948972Y-111692000D03*
X90023972Y-111692000D03*
%TD*%
D35*
%TO.C,R8*%
X143920750Y-115515250D03*
X145745750Y-115515250D03*
%TD*%
D18*
%TO.C,R18*%
X94122222Y-77094250D03*
X94122222Y-75094250D03*
%TD*%
D15*
%TO.C,C14*%
X78816972Y-97976250D03*
X76741972Y-97976250D03*
%TD*%
%TO.C,C4*%
X79066222Y-72486250D03*
X76991222Y-72486250D03*
%TD*%
D21*
%TO.C,R9*%
X152892000Y-98623250D03*
X150892000Y-98623250D03*
%TD*%
D20*
%TO.C,C27*%
X118469500Y-90297000D03*
X120544500Y-90297000D03*
%TD*%
D18*
%TO.C,R1*%
X97028000Y-101405250D03*
X97028000Y-103405250D03*
%TD*%
D28*
%TO.C,C31*%
X152273000Y-115475750D03*
X152273000Y-118600750D03*
%TD*%
D20*
%TO.C,C22*%
X102213500Y-82804000D03*
X104288500Y-82804000D03*
%TD*%
D36*
%TO.C,D4*%
X138120000Y-114853250D03*
X140170000Y-114853250D03*
%TD*%
%TO.C,D2*%
X147863250Y-115388250D03*
X149913250Y-115388250D03*
%TD*%
D37*
%TO.C,SW2*%
X144868999Y-77979749D03*
X152818999Y-77979749D03*
X144868999Y-82479749D03*
X152818999Y-82479749D03*
%TD*%
D12*
%TO.C,C24*%
X142748000Y-81267250D03*
X142748000Y-79192250D03*
%TD*%
D38*
%TO.C,U4*%
X85293221Y-92096249D03*
X85943221Y-92096249D03*
X86593221Y-92096249D03*
X87243221Y-92096249D03*
X87243221Y-93696249D03*
X86593221Y-93696249D03*
X85943221Y-93696249D03*
X85293221Y-93696249D03*
%TD*%
D15*
%TO.C,C1*%
X83714500Y-82931000D03*
X81639500Y-82931000D03*
%TD*%
D20*
%TO.C,C44*%
X147806500Y-92908250D03*
X149881500Y-92908250D03*
%TD*%
D12*
%TO.C,C15*%
X81915000Y-100097500D03*
X81915000Y-98022500D03*
%TD*%
D20*
%TO.C,C36*%
X124819500Y-113228250D03*
X126894500Y-113228250D03*
%TD*%
D28*
%TO.C,C32*%
X142113000Y-123857750D03*
X142113000Y-126982750D03*
%TD*%
D39*
%TO.C,J3*%
X153936999Y-134485249D03*
X153936999Y-133685249D03*
X153936999Y-132385249D03*
X153936999Y-131385249D03*
X153936999Y-130885249D03*
X153936999Y-129885249D03*
X153936999Y-128585249D03*
X153936999Y-127785249D03*
X153936999Y-128085249D03*
X153936999Y-128885249D03*
X153936999Y-129385249D03*
X153936999Y-130385249D03*
X153936999Y-131885249D03*
X153936999Y-132885249D03*
X153936999Y-133385249D03*
X153936999Y-134185249D03*
%TD*%
D15*
%TO.C,C47*%
X130069500Y-97536000D03*
X127994500Y-97536000D03*
%TD*%
D25*
%TO.C,R16*%
X103079472Y-73627750D03*
X103079472Y-71802750D03*
%TD*%
D28*
%TO.C,C42*%
X93046472Y-68739750D03*
X93046472Y-71864750D03*
%TD*%
D13*
%TO.C,C10*%
X80553222Y-109704250D03*
X80553222Y-111779250D03*
%TD*%
D20*
%TO.C,C34*%
X124819500Y-110218250D03*
X126894500Y-110218250D03*
%TD*%
%TO.C,C5*%
X71796722Y-76066750D03*
X73871722Y-76066750D03*
%TD*%
D33*
%TO.C,U11*%
X134859999Y-124100249D03*
X137159999Y-124100249D03*
D34*
X137159999Y-117800249D03*
D33*
X139459999Y-124100249D03*
%TD*%
D12*
%TO.C,C11*%
X78775222Y-93933750D03*
X78775222Y-91858750D03*
%TD*%
D22*
%TO.C,C9*%
X109563222Y-98013250D03*
X106438222Y-98013250D03*
%TD*%
D18*
%TO.C,R2*%
X99314000Y-103405250D03*
X99314000Y-101405250D03*
%TD*%
D33*
%TO.C,U7*%
X105700721Y-107132249D03*
X108000721Y-107132249D03*
D34*
X108000721Y-100832249D03*
D33*
X110300721Y-107132249D03*
%TD*%
D22*
%TO.C,C41*%
X99942972Y-75509250D03*
X96817972Y-75509250D03*
%TD*%
D28*
%TO.C,C30*%
X152273000Y-121317750D03*
X152273000Y-124442750D03*
%TD*%
D33*
%TO.C,U12*%
X144948999Y-124126249D03*
X147248999Y-124126249D03*
D34*
X147248999Y-117826249D03*
D33*
X149548999Y-124126249D03*
%TD*%
D17*
%TO.C,U2*%
X134902500Y-92952250D03*
X134902500Y-93452250D03*
X134902500Y-93952250D03*
X134902500Y-94452250D03*
X134902500Y-94952250D03*
X134902500Y-95452250D03*
X134902500Y-95952250D03*
X134902500Y-96452250D03*
X134902500Y-96952250D03*
X134902500Y-97452250D03*
X134902500Y-97952250D03*
X134902500Y-98452250D03*
D16*
X136315000Y-99864750D03*
X136815000Y-99864750D03*
X137315000Y-99864750D03*
X137815000Y-99864750D03*
X138315000Y-99864750D03*
X138815000Y-99864750D03*
X139315000Y-99864750D03*
X139815000Y-99864750D03*
X140315000Y-99864750D03*
X140815000Y-99864750D03*
X141315000Y-99864750D03*
X141815000Y-99864750D03*
D17*
X143227500Y-98452250D03*
X143227500Y-97952250D03*
X143227500Y-97452250D03*
X143227500Y-96952250D03*
X143227500Y-96452250D03*
X143227500Y-95952250D03*
X143227500Y-95452250D03*
X143227500Y-94952250D03*
X143227500Y-94452250D03*
X143227500Y-93952250D03*
X143227500Y-93452250D03*
X143227500Y-92952250D03*
D16*
X141815000Y-91539750D03*
X141315000Y-91539750D03*
X140815000Y-91539750D03*
X140315000Y-91539750D03*
X139815000Y-91539750D03*
X139315000Y-91539750D03*
X138815000Y-91539750D03*
X138315000Y-91539750D03*
X137815000Y-91539750D03*
X137315000Y-91539750D03*
X136815000Y-91539750D03*
X136315000Y-91539750D03*
%TD*%
D40*
%TO.C,U8*%
X123230000Y-119832250D03*
X123230000Y-121102250D03*
X123230000Y-122372250D03*
X123230000Y-123642250D03*
X123230000Y-124912250D03*
X123230000Y-126182250D03*
X123230000Y-127452250D03*
X123230000Y-128722250D03*
X128230000Y-128722250D03*
X128230000Y-127452250D03*
X128230000Y-126182250D03*
X128230000Y-124912250D03*
X128230000Y-123642250D03*
X128230000Y-122372250D03*
X128230000Y-121102250D03*
X128230000Y-119832250D03*
%TD*%
D41*
%TO.C,U6*%
X81272971Y-103081999D03*
X81272971Y-102581999D03*
X81272971Y-102081999D03*
X81272971Y-101581999D03*
D42*
X80697971Y-101006999D03*
X80197971Y-101006999D03*
X79697971Y-101006999D03*
X79197971Y-101006999D03*
D41*
X78622971Y-101581999D03*
X78622971Y-102081999D03*
X78622971Y-102581999D03*
X78622971Y-103081999D03*
D42*
X79197971Y-103656999D03*
X79697971Y-103656999D03*
X80197971Y-103656999D03*
X80697971Y-103656999D03*
%TD*%
D19*
%TO.C,R14*%
X77119722Y-75877250D03*
X79119722Y-75877250D03*
%TD*%
D13*
%TO.C,C43*%
X141732000Y-103300750D03*
X141732000Y-105375750D03*
%TD*%
D20*
%TO.C,C46*%
X127867500Y-92908250D03*
X129942500Y-92908250D03*
%TD*%
D43*
%TO.C,U14*%
X148666499Y-132398749D03*
X148666499Y-131673749D03*
X147791499Y-132398749D03*
X147791499Y-131673749D03*
D44*
X149678999Y-132786249D03*
X149678999Y-132286249D03*
X149678999Y-131786249D03*
X149678999Y-131286249D03*
X146778999Y-131286249D03*
X146778999Y-131786249D03*
X146778999Y-132286249D03*
X146778999Y-132786249D03*
%TD*%
D26*
%TO.C,D1*%
X102666722Y-102467250D03*
X102666722Y-100417250D03*
%TD*%
D21*
%TO.C,R6*%
X150860000Y-128722250D03*
X148860000Y-128722250D03*
%TD*%
%TO.C,R3*%
X103905222Y-89467250D03*
X101905222Y-89467250D03*
%TD*%
D20*
%TO.C,C7*%
X87948972Y-108682000D03*
X90023972Y-108682000D03*
%TD*%
D19*
%TO.C,R11*%
X136541000Y-132969000D03*
X138541000Y-132969000D03*
%TD*%
D13*
%TO.C,C45*%
X135382000Y-83671500D03*
X135382000Y-85746500D03*
%TD*%
D45*
%TO.C,SW1*%
X82081971Y-78084999D03*
X82081971Y-70134999D03*
X86581971Y-78084999D03*
X86581971Y-70134999D03*
%TD*%
D22*
%TO.C,C33*%
X138341500Y-110942250D03*
X135216500Y-110942250D03*
%TD*%
D35*
%TO.C,R17*%
X133430000Y-114854250D03*
X135255000Y-114854250D03*
%TD*%
D15*
%TO.C,C25*%
X81893500Y-87376000D03*
X83968500Y-87376000D03*
%TD*%
D20*
%TO.C,C28*%
X118469500Y-104267000D03*
X120544500Y-104267000D03*
%TD*%
D15*
%TO.C,C40*%
X143039500Y-129992250D03*
X140964500Y-129992250D03*
%TD*%
D21*
%TO.C,R10*%
X152892000Y-95575250D03*
X150892000Y-95575250D03*
%TD*%
M02*
