M48
; DRILL file {KiCad (7.0.0)} date Fri Mar  8 00:10:18 2024
; FORMAT={-:-/ absolute / metric / decimal}
; #@! TF.CreationDate,2024-03-08T00:10:18+02:00
; #@! TF.GenerationSoftware,Kicad,Pcbnew,(7.0.0)
; #@! TF.FileFunction,Plated,1,2,PTH
FMAT,2
METRIC
; #@! TA.AperFunction,Plated,PTH,ViaDrill
T1C0.400
; #@! TA.AperFunction,Plated,PTH,ComponentDrill
T2C0.600
; #@! TA.AperFunction,Plated,PTH,ComponentDrill
T3C0.800
; #@! TA.AperFunction,Plated,PTH,ComponentDrill
T4C0.950
; #@! TA.AperFunction,Plated,PTH,ComponentDrill
T5C1.000
; #@! TA.AperFunction,Plated,PTH,ComponentDrill
T6C1.100
%
G90
G05
T1
X66.95Y-129.794
X67.626Y-126.111
X68.176Y-116.84
X68.731Y-96.058
X69.376Y-111.069
X69.977Y-119.705
X70.231Y-113.609
X70.578Y-100.824
X70.739Y-115.26
X70.934Y-105.598
X71.998Y-107.129
X72.554Y-117.8
X72.771Y-119.832
X73.152Y-86.36
X74.549Y-120.34
X74.897Y-100.024
X75.092Y-115.629
X75.127Y-92.956
X75.246Y-112.129
X75.473Y-109.218
X75.565Y-83.637
X76.019Y-113.265
X76.435Y-105.175
X76.684Y-102.329
X78.105Y-123.095
X78.232Y-100.274
X78.486Y-95.121
X78.733Y-107.7
X80.01Y-79.319
X80.18Y-104.431
X80.366Y-97.662
X80.401Y-102.785
X81.072Y-89.732
X81.595Y-103.756
X81.661Y-95.133
X82.091Y-124.468
X82.361Y-119.507
X82.361Y-120.65
X82.559Y-96.568
X82.582Y-109.188
X82.677Y-128.778
X83.185Y-124.36
X83.439Y-103.703
X83.606Y-89.726
X83.82Y-90.876
X83.939Y-98.106
X84.324Y-94.809
X85.322Y-87.006
X85.344Y-106.807
X85.453Y-90.877
X85.616Y-81.044
X85.917Y-102.84
X86.106Y-84.182
X86.238Y-118.709
X86.32Y-104.85
X86.487Y-107.312
X86.614Y-131.001
X86.649Y-109.533
X86.703Y-96.416
X86.741Y-91.13
X86.995Y-98.75
X86.995Y-119.507
X87.315Y-80.472
X87.362Y-83.74
X87.949Y-105.761
X88.002Y-91.139
X88.646Y-76.906
X88.773Y-69.921
X88.779Y-97.451
X88.951Y-78.836
X89.242Y-131.826
X89.806Y-105.647
X90.224Y-93.653
X91.061Y-121.612
X91.09Y-84.74
X91.44Y-65.666
X91.694Y-119.253
X91.719Y-105.742
X91.885Y-131.826
X92.034Y-144.429
X92.237Y-92.007
X92.414Y-88.027
X92.456Y-104.44
X93.45Y-84.862
X93.599Y-87.757
X93.634Y-96.96
X93.726Y-117.475
X93.816Y-79.678
X93.877Y-121.182
X93.98Y-78.557
X94.256Y-98.161
X94.333Y-93.317
X94.361Y-83.185
X94.742Y-84.595
X94.75Y-124.015
X94.98Y-98.849
X95.123Y-142.565
X95.138Y-109.35
X95.172Y-88.47
X95.569Y-102.257
X95.963Y-99.341
X96.012Y-84.201
X96.298Y-110.522
X96.75Y-80.108
X97.79Y-79.053
X97.826Y-118.4
X98.679Y-78.229
X98.91Y-90.828
X99.12Y-96.001
X99.52Y-94.977
X99.822Y-98.75
X100.013Y-93.994
X100.076Y-92.202
X100.392Y-106.172
X100.584Y-64.206
X100.584Y-70.175
X100.604Y-85.324
X100.606Y-88.984
X100.646Y-90.19
X101.219Y-62.23
X101.219Y-79.028
X101.346Y-87.503
X101.689Y-113.972
X101.715Y-94.174
X102.102Y-98.11
X102.389Y-87.155
X102.414Y-112.847
X102.489Y-84.815
X102.956Y-93.994
X103.138Y-111.958
X103.491Y-105.918
X103.632Y-103.703
X103.759Y-97.294
X103.818Y-87.317
X103.942Y-84.915
X104.575Y-105.665
X104.801Y-103.716
X105.029Y-83.757
X105.271Y-91.567
X105.557Y-79.397
X105.674Y-105.665
X105.918Y-72.771
X106.177Y-95.522
X106.523Y-88.57
X106.934Y-87.272
X107.239Y-104.871
X107.257Y-79.756
X107.525Y-94.344
X107.696Y-108.783
X107.711Y-81.734
X108.165Y-79.128
X108.458Y-76.708
X108.853Y-94.615
X108.944Y-89.063
X108.966Y-92.4
X109.525Y-114.777
X109.555Y-117.28
X109.757Y-91.637
X110.003Y-105.433
X110.465Y-115.353
X111.603Y-118.11
X115.697Y-142.24
X115.709Y-105.88
X115.972Y-108.712
X116.041Y-112.268
X117.192Y-141.38
X117.738Y-114.808
X117.838Y-132.641
X118.618Y-118.189
X119.253Y-114.173
X119.61Y-106.275
X119.634Y-123.261
X119.888Y-125.095
X120.65Y-100.33
X120.732Y-106.238
X120.904Y-136.906
X121.285Y-125.603
X121.412Y-127.889
X122.259Y-73.702
X122.373Y-72.081
X122.428Y-89.408
X122.555Y-140.843
X122.809Y-134.874
X123.081Y-109.728
X123.444Y-112.302
X123.571Y-96.266
X124.141Y-63.881
X124.308Y-66.802
X124.46Y-136.398
X124.561Y-96.748
X124.714Y-108.656
X124.841Y-75.565
X124.841Y-93.726
X124.841Y-123.642
X124.841Y-127.706
X124.968Y-86.36
X125.133Y-68.072
X125.476Y-90.424
X125.603Y-82.804
X125.603Y-119.959
X125.857Y-114.808
X126.365Y-130.822
X126.619Y-128.468
X126.682Y-79.819
X127.104Y-65.405
X127.127Y-143.397
X127.889Y-132.672
X128.397Y-146.939
X128.78Y-110.182
X128.905Y-85.979
X129.032Y-84.328
X129.723Y-70.428
X129.741Y-112.776
X129.921Y-123.642
X130.302Y-89.408
X130.302Y-122.372
X130.302Y-120.904
X130.745Y-127.508
X130.779Y-65.721
X130.938Y-78.867
X131.028Y-107.732
X131.191Y-128.976
X131.572Y-93.628
X131.953Y-84.011
X132.207Y-81.788
X132.362Y-123.952
X132.461Y-69.199
X132.461Y-91.186
X132.802Y-88.336
X133.197Y-105.258
X133.35Y-117.729
X133.477Y-73.406
X133.731Y-136.398
X133.858Y-134.112
X133.985Y-107.061
X134.067Y-128.905
X134.112Y-104.648
X134.275Y-112.943
X134.683Y-90.17
X134.707Y-79.121
X134.963Y-102.433
X135.03Y-75.594
X135.076Y-77.164
X136.271Y-102.997
X136.339Y-95.128
X136.398Y-152.082
X136.889Y-93.344
X136.889Y-97.307
X136.974Y-104.561
X137.129Y-105.74
X138.094Y-135.699
X138.303Y-76.162
X138.577Y-97.137
X138.597Y-113.061
X138.772Y-138.518
X139.08Y-108.691
X139.319Y-74.041
X139.319Y-144.526
X139.498Y-98.096
X139.765Y-135.699
X139.825Y-93.138
X140.007Y-107.855
X140.145Y-83.545
X140.161Y-111.934
X140.303Y-73.12
X140.335Y-85.344
X140.335Y-88.519
X140.395Y-101.634
X140.462Y-96.393
X141.037Y-135.579
X141.252Y-109.065
X141.718Y-94.34
X141.732Y-77.838
X141.732Y-85.344
X141.79Y-97.926
X141.862Y-139.702
X141.927Y-75.252
X142.172Y-135.263
X142.844Y-102.26
X142.875Y-82.804
X142.875Y-88.773
X142.875Y-131.643
X142.904Y-74.324
X143.023Y-101.091
X143.239Y-134.999
X143.383Y-89.858
X143.51Y-72.136
X143.636Y-121.792
X143.853Y-139.008
X143.971Y-126.846
X144.227Y-129.065
X144.871Y-134.532
X145.034Y-126.563
X145.161Y-144.78
X145.252Y-130.034
X145.288Y-131.897
X145.288Y-135.549
X145.415Y-98.507
X145.415Y-138.557
X145.49Y-73.848
X145.542Y-94.343
X145.551Y-119.879
X145.669Y-122.174
X145.692Y-113.684
X145.694Y-88.999
X145.923Y-71.755
X146.177Y-134.239
X146.214Y-72.898
X146.215Y-70.138
X146.278Y-89.93
X146.685Y-98.044
X146.876Y-113.03
X146.939Y-83.204
X147.066Y-130.302
X147.155Y-127.762
X147.193Y-95.711
X147.222Y-125.85
X147.579Y-120.01
X147.995Y-94.959
X147.999Y-122.118
X148.432Y-84.112
X148.59Y-106.497
X148.971Y-141.676
X149.098Y-96.647
X149.098Y-100.711
X149.098Y-121.954
X149.259Y-68.106
X149.553Y-84.936
X149.86Y-119.761
X149.863Y-85.991
X149.927Y-65.151
X150.241Y-121.229
X150.385Y-61.739
X150.454Y-83.204
X150.495Y-135.509
X150.622Y-100.584
X150.622Y-138.557
X150.751Y-64.018
X151.003Y-86.233
X151.153Y-133.223
X151.576Y-64.897
X152.4Y-62.357
X152.498Y-68.736
X152.527Y-129.992
X152.527Y-134.183
X152.527Y-146.876
X152.952Y-104.816
X153.035Y-100.076
X153.289Y-83.829
X153.328Y-89.554
X153.351Y-108.966
X153.797Y-97.028
X153.92Y-124.654
X153.951Y-107.061
X154.051Y-104.775
X154.051Y-120.379
X154.373Y-122.519
X154.877Y-147.066
X154.94Y-91.821
X155.212Y-84.531
X155.223Y-138.835
X155.23Y-140.718
X155.448Y-131.008
X155.559Y-145.161
X156.464Y-99.187
X156.718Y-126.055
X157.011Y-138.557
X158.115Y-125.349
X159.28Y-96.346
X160.02Y-142.748
X160.909Y-145.034
T3
X71.79Y-82.408
X71.79Y-87.308
X118.618Y-94.832
X118.618Y-99.732
X130.334Y-132.151
X132.334Y-132.151
T4
X71.759Y-138.018
X74.259Y-138.018
X76.759Y-138.018
X79.259Y-138.018
X83.871Y-149.067
X86.371Y-149.067
X88.871Y-149.067
X91.371Y-149.067
X93.871Y-149.067
X96.371Y-149.067
X131.518Y-149.423
X134.018Y-149.423
X136.518Y-149.423
X139.018Y-149.423
X141.518Y-149.423
X144.018Y-149.423
T5
X70.358Y-55.57
X70.358Y-60.142
X71.425Y-122.27
X71.425Y-124.81
X71.425Y-127.35
X71.425Y-129.89
X72.898Y-55.57
X72.898Y-60.142
X75.87Y-122.27
X75.87Y-124.81
X75.87Y-127.35
X75.87Y-129.89
X77.597Y-55.57
X77.597Y-60.142
X80.137Y-55.57
X80.137Y-60.142
X80.188Y-122.27
X80.188Y-124.81
X80.188Y-127.35
X80.188Y-129.89
X84.76Y-122.27
X84.76Y-124.81
X84.76Y-127.35
X84.76Y-129.89
X85.979Y-55.443
X85.979Y-60.142
X88.519Y-55.443
X88.519Y-60.142
X89.078Y-122.27
X89.078Y-124.81
X89.078Y-127.35
X89.078Y-129.89
X90.495Y-137.958
X92.456Y-55.443
X92.456Y-60.142
X92.995Y-137.958
X94.996Y-55.443
X94.996Y-60.142
X97.409Y-122.341
X97.409Y-124.841
X97.409Y-127.341
X101.219Y-55.189
X101.219Y-60.071
X103.759Y-55.189
X103.759Y-60.071
X105.222Y-122.368
X105.222Y-127.018
X105.222Y-131.668
X105.222Y-136.318
X107.762Y-122.368
X107.762Y-127.018
X107.762Y-131.668
X107.762Y-136.318
X107.823Y-55.189
X108.077Y-60.142
X110.287Y-74.782
X110.287Y-77.322
X110.287Y-79.862
X110.287Y-82.402
X110.302Y-122.368
X110.302Y-127.018
X110.302Y-131.668
X110.302Y-136.318
X110.363Y-55.189
X110.617Y-60.142
X116.713Y-118.938
X116.713Y-121.478
X116.713Y-127.447
X116.713Y-129.987
X117.221Y-55.316
X117.221Y-59.761
X118.11Y-138.43
X118.872Y-109.037
X118.872Y-111.577
X119.761Y-55.316
X119.761Y-59.761
X124.206Y-59.761
X124.46Y-55.316
X125.008Y-102.743
X125.71Y-138.43
X126.746Y-59.761
X127.0Y-55.316
X127.508Y-102.743
X130.008Y-102.743
X130.429Y-140.406
X130.429Y-142.946
X132.461Y-55.316
X132.588Y-59.634
X132.969Y-140.406
X132.969Y-142.946
X135.001Y-55.316
X135.128Y-59.634
X135.382Y-67.635
X135.382Y-70.175
X135.509Y-140.406
X135.509Y-142.946
X137.922Y-67.635
X137.922Y-70.175
X138.049Y-140.406
X138.049Y-142.946
X139.319Y-55.457
X139.319Y-59.69
X140.462Y-67.635
X140.462Y-70.175
X140.589Y-140.406
X140.589Y-142.946
X141.859Y-55.457
X141.859Y-59.69
X143.002Y-67.635
X143.002Y-70.175
X143.129Y-140.406
X143.129Y-142.946
X145.669Y-140.406
X145.669Y-142.946
X148.082Y-55.316
X148.082Y-59.761
X148.209Y-140.406
X148.209Y-142.946
X150.622Y-55.316
X150.622Y-59.761
X150.749Y-140.406
X150.749Y-142.946
X155.321Y-55.316
X155.321Y-59.761
X157.844Y-101.564
X157.844Y-104.064
X157.861Y-55.316
X157.861Y-59.761
X157.861Y-92.313
X157.861Y-94.813
X157.861Y-110.728
X157.861Y-113.228
X157.861Y-119.578
X157.861Y-122.078
X157.861Y-140.065
X157.861Y-142.565
X159.893Y-76.144
X159.893Y-78.684
X159.893Y-81.224
X159.893Y-83.764
T6
X150.805Y-105.354
X150.805Y-107.894
X150.805Y-110.434
T2
G00X153.952Y-126.815
M15
G01X155.052Y-126.815
M16
G05
G00X153.952Y-135.455
M15
G01X155.052Y-135.455
M16
G05
G00X158.382Y-126.815
M15
G01X158.982Y-126.815
M16
G05
G00X158.382Y-135.455
M15
G01X158.982Y-135.455
M16
G05
T0
M30
