%TF.GenerationSoftware,KiCad,Pcbnew,(7.0.0)*%
%TF.CreationDate,2024-03-08T00:10:06+02:00*%
%TF.ProjectId,quadraptor,71756164-7261-4707-946f-722e6b696361,rev?*%
%TF.SameCoordinates,Original*%
%TF.FileFunction,Profile,NP*%
%FSLAX46Y46*%
G04 Gerber Fmt 4.6, Leading zero omitted, Abs format (unit mm)*
G04 Created by KiCad (PCBNEW (7.0.0)) date 2024-03-08 00:10:06*
%MOMM*%
%LPD*%
G01*
G04 APERTURE LIST*
%TA.AperFunction,Profile*%
%ADD10C,0.100000*%
%TD*%
G04 APERTURE END LIST*
D10*
X112522000Y-68199000D02*
X114259093Y-68263205D01*
X112395000Y-64389000D02*
X108712000Y-64389000D01*
X118301205Y-64221093D02*
X114681000Y-64262000D01*
X112522000Y-68199000D02*
G75*
G03*
X108712000Y-64389000I-3810000J0D01*
G01*
X118301205Y-64221093D02*
G75*
G03*
X114259093Y-68263205I0J-4042112D01*
G01*
X162052034Y-67945080D02*
G75*
G03*
X158498266Y-64516000I-3553734J-126920D01*
G01*
X65150440Y-149605981D02*
G75*
G03*
X68898274Y-153418189I3683560J-127019D01*
G01*
X127508000Y-62809250D02*
X135509000Y-62809250D01*
X135509000Y-62809250D02*
X135509000Y-64333250D01*
X135509000Y-64333250D02*
X127508000Y-64333250D01*
X127508000Y-64333250D02*
X127508000Y-62809250D01*
X112903000Y-70612000D02*
X114173000Y-70612000D01*
X114173000Y-70612000D02*
X114173000Y-148590000D01*
X114173000Y-148590000D02*
X112903000Y-148590000D01*
X112903000Y-148590000D02*
X112903000Y-70612000D01*
X68707000Y-64516000D02*
X65151000Y-64516000D01*
X109282726Y-153416000D02*
X68898274Y-153418189D01*
X70358000Y-62865000D02*
X74676000Y-62865000D01*
X74676000Y-62865000D02*
X74676000Y-64516000D01*
X74676000Y-64516000D02*
X70358000Y-64516000D01*
X70358000Y-64516000D02*
X70358000Y-62865000D01*
X140525500Y-62809250D02*
X148526500Y-62809250D01*
X148526500Y-62809250D02*
X148526500Y-64333250D01*
X148526500Y-64333250D02*
X140525500Y-64333250D01*
X140525500Y-64333250D02*
X140525500Y-62809250D01*
X158115000Y-153416000D02*
G75*
G03*
X161798000Y-149733000I0J3683000D01*
G01*
X114681000Y-64262000D02*
X114681000Y-54991000D01*
X114681000Y-54991000D02*
X112395000Y-54991000D01*
X117793274Y-153416000D02*
X158115000Y-153416000D01*
X112395000Y-54991000D02*
X112395000Y-64389000D01*
X68707000Y-64516000D02*
G75*
G03*
X65151000Y-68072000I0J-3556000D01*
G01*
X65151000Y-64516000D02*
X65151000Y-53467000D01*
X153670000Y-62809250D02*
X157353000Y-62809250D01*
X157353000Y-62809250D02*
X157353000Y-64333250D01*
X157353000Y-64333250D02*
X153670000Y-64333250D01*
X153670000Y-64333250D02*
X153670000Y-62809250D01*
X65151000Y-53467000D02*
X161798000Y-53467000D01*
X109282726Y-153416026D02*
G75*
G03*
X112965726Y-149733000I-26J3683026D01*
G01*
X158498266Y-64516000D02*
X161798000Y-64516000D01*
X162052000Y-67945081D02*
X161798000Y-149733000D01*
X79502000Y-62809250D02*
X87503000Y-62809250D01*
X87503000Y-62809250D02*
X87503000Y-64460250D01*
X87503000Y-64460250D02*
X79502000Y-64460250D01*
X79502000Y-64460250D02*
X79502000Y-62809250D01*
X104457500Y-62809250D02*
X108140500Y-62809250D01*
X108140500Y-62809250D02*
X108140500Y-64333250D01*
X108140500Y-64333250D02*
X104457500Y-64333250D01*
X104457500Y-64333250D02*
X104457500Y-62809250D01*
X114110274Y-149733000D02*
X112965726Y-149733000D01*
X91567000Y-62809250D02*
X99568000Y-62809250D01*
X99568000Y-62809250D02*
X99568000Y-64460250D01*
X99568000Y-64460250D02*
X91567000Y-64460250D01*
X91567000Y-64460250D02*
X91567000Y-62809250D01*
X65150440Y-149605981D02*
X65151000Y-68072000D01*
X161798000Y-64516000D02*
X161798000Y-53467000D01*
X114110300Y-149733000D02*
G75*
G03*
X117793274Y-153416000I3683000J0D01*
G01*
X119608600Y-62809250D02*
X122809000Y-62809250D01*
X122809000Y-62809250D02*
X122809000Y-64333250D01*
X122809000Y-64333250D02*
X119608600Y-64333250D01*
X119608600Y-64333250D02*
X119608600Y-62809250D01*
M02*
