%TF.GenerationSoftware,KiCad,Pcbnew,(7.0.0)*%
%TF.CreationDate,2024-03-08T00:10:06+02:00*%
%TF.ProjectId,quadraptor,71756164-7261-4707-946f-722e6b696361,rev?*%
%TF.SameCoordinates,Original*%
%TF.FileFunction,Soldermask,Bot*%
%TF.FilePolarity,Negative*%
%FSLAX46Y46*%
G04 Gerber Fmt 4.6, Leading zero omitted, Abs format (unit mm)*
G04 Created by KiCad (PCBNEW (7.0.0)) date 2024-03-08 00:10:06*
%MOMM*%
%LPD*%
G01*
G04 APERTURE LIST*
G04 Aperture macros list*
%AMRoundRect*
0 Rectangle with rounded corners*
0 $1 Rounding radius*
0 $2 $3 $4 $5 $6 $7 $8 $9 X,Y pos of 4 corners*
0 Add a 4 corners polygon primitive as box body*
4,1,4,$2,$3,$4,$5,$6,$7,$8,$9,$2,$3,0*
0 Add four circle primitives for the rounded corners*
1,1,$1+$1,$2,$3*
1,1,$1+$1,$4,$5*
1,1,$1+$1,$6,$7*
1,1,$1+$1,$8,$9*
0 Add four rect primitives between the rounded corners*
20,1,$1+$1,$2,$3,$4,$5,0*
20,1,$1+$1,$4,$5,$6,$7,0*
20,1,$1+$1,$6,$7,$8,$9,0*
20,1,$1+$1,$8,$9,$2,$3,0*%
G04 Aperture macros list end*
%ADD10R,1.700000X1.700000*%
%ADD11O,1.700000X1.700000*%
%ADD12C,3.200000*%
%ADD13RoundRect,0.250000X0.750000X-0.600000X0.750000X0.600000X-0.750000X0.600000X-0.750000X-0.600000X0*%
%ADD14O,2.000000X1.700000*%
%ADD15R,2.000000X2.000000*%
%ADD16C,2.000000*%
%ADD17RoundRect,0.250000X-0.600000X-0.750000X0.600000X-0.750000X0.600000X0.750000X-0.600000X0.750000X0*%
%ADD18O,1.700000X2.000000*%
%ADD19C,1.500000*%
%ADD20RoundRect,0.250000X-0.600000X-0.725000X0.600000X-0.725000X0.600000X0.725000X-0.600000X0.725000X0*%
%ADD21O,1.700000X1.950000*%
%ADD22C,0.900000*%
%ADD23R,1.600000X1.600000*%
%ADD24C,1.600000*%
%ADD25R,2.000000X1.905000*%
%ADD26O,2.000000X1.905000*%
%ADD27C,1.712000*%
%ADD28O,2.100000X1.000000*%
%ADD29O,1.600000X1.000000*%
G04 APERTURE END LIST*
D10*
%TO.C,J20*%
X80187721Y-122270249D03*
D11*
X80187721Y-124810249D03*
X80187721Y-127350249D03*
X80187721Y-129890249D03*
%TD*%
D12*
%TO.C,H2*%
X108762722Y-149702250D03*
%TD*%
D13*
%TO.C,J17*%
X157861000Y-113228250D03*
D14*
X157860999Y-110728249D03*
%TD*%
D15*
%TO.C,BZ1*%
X118109999Y-138429999D03*
D16*
X125710000Y-138430000D03*
%TD*%
%TO.C,TP7*%
X92456000Y-55443250D03*
X94996000Y-55443250D03*
%TD*%
D13*
%TO.C,J14*%
X157861000Y-142565250D03*
D14*
X157860999Y-140065249D03*
%TD*%
D10*
%TO.C,J8*%
X105221721Y-127018249D03*
D11*
X107761721Y-127018249D03*
X110301721Y-127018249D03*
%TD*%
D17*
%TO.C,J2*%
X90494722Y-137958250D03*
D18*
X92994721Y-137958249D03*
%TD*%
D19*
%TO.C,Y1*%
X71790222Y-87308250D03*
X71790222Y-82408250D03*
%TD*%
D20*
%TO.C,J24*%
X71758722Y-138018250D03*
D21*
X74258721Y-138018249D03*
X76758721Y-138018249D03*
X79258721Y-138018249D03*
%TD*%
D10*
%TO.C,J1*%
X110286721Y-74782249D03*
D11*
X110286721Y-77322249D03*
X110286721Y-79862249D03*
X110286721Y-82402249D03*
%TD*%
D16*
%TO.C,TP11*%
X132461000Y-55316250D03*
X135001000Y-55316250D03*
%TD*%
D10*
%TO.C,LS1*%
X116712999Y-118938249D03*
D11*
X116712999Y-121478249D03*
%TD*%
D10*
%TO.C,J9*%
X105221721Y-122368249D03*
D11*
X107761721Y-122368249D03*
X110301721Y-122368249D03*
%TD*%
D12*
%TO.C,H8*%
X158115000Y-149804250D03*
%TD*%
D10*
%TO.C,J13*%
X159892999Y-76144249D03*
D11*
X159892999Y-78684249D03*
X159892999Y-81224249D03*
X159892999Y-83764249D03*
%TD*%
D16*
%TO.C,TP4*%
X85979000Y-55443250D03*
X88519000Y-55443250D03*
%TD*%
D10*
%TO.C,LS2*%
X116712999Y-127447249D03*
D11*
X116712999Y-129987249D03*
%TD*%
D12*
%TO.C,H1*%
X108762722Y-68270250D03*
%TD*%
D16*
%TO.C,TP6*%
X77597000Y-60142250D03*
X80137000Y-60142250D03*
%TD*%
D22*
%TO.C,J4*%
X118821855Y-83842282D03*
X118821855Y-75842282D03*
%TD*%
D12*
%TO.C,H7*%
X118364000Y-149677250D03*
%TD*%
D16*
%TO.C,TP3*%
X77597000Y-55570250D03*
X80137000Y-55570250D03*
%TD*%
D13*
%TO.C,J16*%
X157844000Y-104064250D03*
D14*
X157843999Y-101564249D03*
%TD*%
D16*
%TO.C,TP2*%
X101219000Y-55189250D03*
X103759000Y-55189250D03*
%TD*%
D23*
%TO.C,C35*%
X130333999Y-132151249D03*
D24*
X132334000Y-132151250D03*
%TD*%
D10*
%TO.C,J10*%
X71424721Y-122270249D03*
D11*
X71424721Y-124810249D03*
X71424721Y-127350249D03*
X71424721Y-129890249D03*
%TD*%
D12*
%TO.C,H5*%
X158242000Y-68143250D03*
%TD*%
D16*
%TO.C,TP12*%
X132588000Y-59634250D03*
X135128000Y-59634250D03*
%TD*%
D10*
%TO.C,J7*%
X105221721Y-131668249D03*
D11*
X107761721Y-131668249D03*
X110301721Y-131668249D03*
%TD*%
D16*
%TO.C,TP9*%
X124460000Y-55316250D03*
X127000000Y-55316250D03*
%TD*%
%TO.C,TP19*%
X117221000Y-59761250D03*
X119761000Y-59761250D03*
%TD*%
D10*
%TO.C,J22*%
X89077721Y-122270249D03*
D11*
X89077721Y-124810249D03*
X89077721Y-127350249D03*
X89077721Y-129890249D03*
%TD*%
D25*
%TO.C,Q1*%
X150804999Y-110434249D03*
D26*
X150804999Y-107894249D03*
X150804999Y-105354249D03*
%TD*%
D10*
%TO.C,J21*%
X84759721Y-122270249D03*
D11*
X84759721Y-124810249D03*
X84759721Y-127350249D03*
X84759721Y-129890249D03*
%TD*%
D16*
%TO.C,TP15*%
X139319000Y-55457250D03*
X141859000Y-55457250D03*
%TD*%
%TO.C,TP5*%
X85979000Y-60142250D03*
X88519000Y-60142250D03*
%TD*%
D10*
%TO.C,J19*%
X75869721Y-122270249D03*
D11*
X75869721Y-124810249D03*
X75869721Y-127350249D03*
X75869721Y-129890249D03*
%TD*%
D16*
%TO.C,TP24*%
X107823000Y-55189250D03*
X110363000Y-55189250D03*
%TD*%
D10*
%TO.C,J11*%
X130428999Y-142946249D03*
D11*
X130428999Y-140406249D03*
X132968999Y-142946249D03*
X132968999Y-140406249D03*
X135508999Y-142946249D03*
X135508999Y-140406249D03*
X138048999Y-142946249D03*
X138048999Y-140406249D03*
X140588999Y-142946249D03*
X140588999Y-140406249D03*
X143128999Y-142946249D03*
X143128999Y-140406249D03*
X145668999Y-142946249D03*
X145668999Y-140406249D03*
X148208999Y-142946249D03*
X148208999Y-140406249D03*
X150748999Y-142946249D03*
X150748999Y-140406249D03*
%TD*%
D16*
%TO.C,TP21*%
X155321000Y-55316250D03*
X157861000Y-55316250D03*
%TD*%
%TO.C,TP25*%
X108077000Y-60142250D03*
X110617000Y-60142250D03*
%TD*%
D12*
%TO.C,H3*%
X68834000Y-149804250D03*
%TD*%
D16*
%TO.C,TP27*%
X70358000Y-55570250D03*
X72898000Y-55570250D03*
%TD*%
D27*
%TO.C,SW3*%
X97409000Y-127341000D03*
X97409000Y-124841000D03*
X97409000Y-122341000D03*
%TD*%
D10*
%TO.C,J12*%
X135381999Y-70175249D03*
D11*
X135381999Y-67635249D03*
X137921999Y-70175249D03*
X137921999Y-67635249D03*
X140461999Y-70175249D03*
X140461999Y-67635249D03*
X143001999Y-70175249D03*
X143001999Y-67635249D03*
%TD*%
D20*
%TO.C,J23*%
X83870722Y-149067250D03*
D21*
X86370721Y-149067249D03*
X88870721Y-149067249D03*
X91370721Y-149067249D03*
X93870721Y-149067249D03*
X96370721Y-149067249D03*
%TD*%
D28*
%TO.C,J3*%
X154501999Y-135455249D03*
D29*
X158681999Y-135455249D03*
D28*
X154501999Y-126815249D03*
D29*
X158681999Y-126815249D03*
%TD*%
D12*
%TO.C,H4*%
X68707000Y-68143250D03*
%TD*%
D16*
%TO.C,TP17*%
X148082000Y-55316250D03*
X150622000Y-55316250D03*
%TD*%
D13*
%TO.C,J18*%
X157861000Y-122078250D03*
D14*
X157860999Y-119578249D03*
%TD*%
D16*
%TO.C,TP28*%
X70358000Y-60142250D03*
X72898000Y-60142250D03*
%TD*%
%TO.C,TP1*%
X92456000Y-60142250D03*
X94996000Y-60142250D03*
%TD*%
D19*
%TO.C,Y2*%
X118618000Y-99732000D03*
X118618000Y-94832000D03*
%TD*%
D16*
%TO.C,TP8*%
X117221000Y-55316250D03*
X119761000Y-55316250D03*
%TD*%
%TO.C,TP13*%
X155321000Y-59761250D03*
X157861000Y-59761250D03*
%TD*%
D27*
%TO.C,SW4*%
X125008000Y-102743000D03*
X127508000Y-102743000D03*
X130008000Y-102743000D03*
%TD*%
D16*
%TO.C,TP10*%
X124206000Y-59761250D03*
X126746000Y-59761250D03*
%TD*%
D12*
%TO.C,H6*%
X118364000Y-68199000D03*
%TD*%
D20*
%TO.C,J5*%
X131518000Y-149423250D03*
D21*
X134017999Y-149423249D03*
X136517999Y-149423249D03*
X139017999Y-149423249D03*
X141517999Y-149423249D03*
X144017999Y-149423249D03*
%TD*%
D13*
%TO.C,J15*%
X157861000Y-94813250D03*
D14*
X157860999Y-92313249D03*
%TD*%
D16*
%TO.C,TP23*%
X101219000Y-60071000D03*
X103759000Y-60071000D03*
%TD*%
D10*
%TO.C,J6*%
X105221721Y-136318249D03*
D11*
X107761721Y-136318249D03*
X110301721Y-136318249D03*
%TD*%
D16*
%TO.C,TP16*%
X139319000Y-59690000D03*
X141859000Y-59690000D03*
%TD*%
D10*
%TO.C,J25*%
X118871999Y-109037249D03*
D11*
X118871999Y-111577249D03*
%TD*%
D16*
%TO.C,TP14*%
X148082000Y-59761250D03*
X150622000Y-59761250D03*
%TD*%
M02*
